<?xml version="1.0" standalone="no"?>
<!DOCTYPE svg PUBLIC "-//W3C//DTD SVG 20010904//EN"
 "http://www.w3.org/TR/2001/REC-SVG-20010904/DTD/svg10.dtd">
<svg version="1.0" xmlns="http://www.w3.org/2000/svg"
 width="88.000000pt" height="63.000000pt" viewBox="0 0 88.000000 63.000000"
 preserveAspectRatio="xMidYMid meet">

<g transform="translate(0.000000,63.000000) scale(0.100000,-0.100000)"
fill="#000000" stroke="none">
<path d="M26 598 c4 -7 47 -72 96 -145 48 -73 88 -135 88 -139 0 -3 -40 -65
-88 -138 -49 -72 -92 -137 -96 -143 -5 -10 11 -13 68 -13 l75 0 96 141 c59 86
95 147 92 158 -2 10 -45 79 -96 154 l-91 137 -76 0 c-57 0 -73 -3 -68 -12z"/>
<path d="M220 604 c0 -3 43 -69 96 -146 l97 -140 -97 -141 c-53 -78 -96 -145
-96 -149 0 -5 32 -8 70 -8 l70 0 33 46 c17 26 46 67 63 91 l32 45 48 -69 c27
-38 56 -79 64 -92 14 -20 22 -22 88 -19 l73 3 -197 293 -198 292 -73 0 c-40 0
-73 -3 -73 -6z"/>
<path d="M544 415 c9 -14 23 -36 32 -50 16 -25 18 -25 150 -25 l134 0 0 50 0
50 -166 0 -166 0 16 -25z"/>
<path d="M630 284 c0 -3 14 -25 30 -50 l31 -44 84 0 85 0 0 50 0 50 -115 0
c-63 0 -115 -3 -115 -6z"/>
</g>
</svg>
