<svg xmlns="http://www.w3.org/2000/svg" width="88" height="63" viewBox="0 0 88 63" version="1.1"><path d="M 2 2.533 L 2 3.067 8.842 13.283 L 15.684 23.500 18.291 27.650 L 20.899 31.800 11.823 45.150 L 2.746 58.500 2.266 59.750 L 1.786 61 9.643 60.966 L 17.500 60.932 27.324 46.438 L 37.148 31.944 36.824 31.052 L 36.500 30.161 27 16.118 L 17.500 2.075 9.750 2.038 L 2 2 2 2.533" stroke="none" fill="#360257" fill-rule="evenodd"/><path d="M 53 19.512 L 53 20.023 56.250 24.994 L 59.500 29.964 72.750 29.982 L 86 30 86 24.500 L 86 19 69.500 19 L 53 19 53 19.512 M 62.728 33.605 L 62.123 34.210 65.312 39.087 L 68.500 43.964 77.250 43.982 L 86 44 86 38.500 L 86 33 74.667 33 L 63.333 33 62.728 33.605" stroke="none" fill="#d4049c" fill-rule="evenodd"/><path d="M 21.607 3.208 L 22.384 4.500 31.192 17.412 L 40 30.324 40 31.188 L 40 32.053 31.182 45.276 L 22.365 58.500 21.623 59.750 L 20.882 61 28.934 61 L 36.987 61 42.644 52.500 L 48.300 44 48.900 44.014 L 49.500 44.028 55 52.500 L 60.500 60.972 68.250 60.986 L 76 61 76 60.192 L 76 59.384 56.750 30.942 L 37.500 2.500 29.165 2.208 L 20.830 1.916 21.607 3.208" stroke="none" fill="#6c0464" fill-rule="evenodd"/></svg>